<svg xmlns="http://www.w3.org/2000/svg" viewBox="0 0 120 120" role="img" aria-label="Curabo">
  <defs>
    <linearGradient id="cbTeal" x1="20%" y1="10%" x2="75%" y2="85%">
      <stop offset="0%" stop-color="#3df0d9"/>
      <stop offset="100%" stop-color="#1fd0c4"/>
    </linearGradient>
    <linearGradient id="cbPink" x1="85%" y1="25%" x2="35%" y2="95%">
      <stop offset="0%" stop-color="#ff5b8e"/>
      <stop offset="100%" stop-color="#f43f7e"/>
    </linearGradient>
    <linearGradient id="cbBlue" x1="30%" y1="95%" x2="70%" y2="25%">
      <stop offset="0%" stop-color="#7b61e6"/>
      <stop offset="100%" stop-color="#4f7df0"/>
    </linearGradient>
    <filter id="cbSoft" x="-20%" y="-20%" width="140%" height="140%">
      <feDropShadow dx="0" dy="2.5" stdDeviation="3" flood-color="#2a1840" flood-opacity="0.18"/>
    </filter>
  </defs>
  <g filter="url(#cbSoft)" transform="rotate(-18 60 60)">
    <path d="M60 60 C52 47 37 43 37 27 A23 23 0 1 1 83 27 C83 43 68 47 60 60 Z" fill="url(#cbTeal)" transform="rotate(0 60 60)"/>
    <path d="M60 60 C52 47 37 43 37 27 A23 23 0 1 1 83 27 C83 43 68 47 60 60 Z" fill="url(#cbPink)" transform="rotate(120 60 60)"/>
    <path d="M60 60 C52 47 37 43 37 27 A23 23 0 1 1 83 27 C83 43 68 47 60 60 Z" fill="url(#cbBlue)" transform="rotate(240 60 60)"/>
  </g>
</svg>
